<?xml version="1.0" encoding="UTF-8"?>
<svg version="1.1" xmlns="http://www.w3.org/2000/svg" width="512" height="512">
<path d="M0 0 C1.15921089 -0.00297112 2.31842179 -0.00594224 3.51276028 -0.0090034 C6.72181484 -0.01616639 9.93083673 -0.01886136 13.13989806 -0.01960087 C16.60419673 -0.02145636 20.0684839 -0.02900604 23.53277588 -0.03573608 C31.10296264 -0.04929823 38.67314409 -0.05534044 46.24334097 -0.05974674 C50.97156607 -0.062512 55.69978913 -0.0667498 60.42801285 -0.07125092 C73.52396198 -0.0834394 86.6199095 -0.09374046 99.71586418 -0.09712601 C100.55344256 -0.09734557 101.39102093 -0.09756514 102.25398047 -0.09779136 C103.5133099 -0.09811878 103.5133099 -0.09811878 104.79808033 -0.09845281 C106.4992675 -0.09889627 108.20045467 -0.09934283 109.90164185 -0.09979248 C110.74548495 -0.10001391 111.58932805 -0.10023534 112.45874216 -0.10046348 C126.13615077 -0.10441268 139.81350614 -0.12187229 153.49089418 -0.145152 C167.53943905 -0.16887019 181.5879572 -0.18132802 195.63652241 -0.18249393 C203.52187002 -0.18341027 211.40714819 -0.18915265 219.29247665 -0.20731354 C226.0056288 -0.22272064 232.71869003 -0.2278313 239.4318565 -0.21957543 C242.85565832 -0.21567145 246.2792771 -0.21658612 249.70305634 -0.23063278 C253.41791809 -0.24330959 257.13230965 -0.23749813 260.84716797 -0.22705078 C261.92480183 -0.23510719 263.0024357 -0.24316359 264.11272514 -0.25146413 C273.18820468 -0.19174845 279.90646702 1.49634129 286.55056763 8.14044189 C290.50487375 13.76237872 291.67420788 18.4408304 291.68199539 25.21412945 C291.68583654 26.46708236 291.68967768 27.72003528 291.69363523 29.01095647 C291.69285498 30.40394642 291.6919762 31.79693631 291.69100952 33.18992615 C291.69359317 34.66776825 291.69660633 36.14560966 291.70001292 37.6234501 C291.70808624 41.69020568 291.70987268 45.75694362 291.71061039 49.82370627 C291.71246038 54.20763029 291.72000747 58.59154514 291.72674561 62.97546387 C291.74033203 72.5643672 291.74635419 82.15326636 291.75075626 91.74217772 C291.75351828 97.72906759 291.75775558 103.71595584 291.76226044 109.70284462 C291.77445374 126.27723559 291.78475278 142.85162526 291.78813553 159.42602062 C291.78835509 160.48698852 291.78857466 161.54795642 291.78880088 162.64107485 C291.78901916 163.70458965 291.78923744 164.76810444 291.78946233 165.86384696 C291.78990579 168.01895217 291.79035236 170.17405738 291.790802 172.3291626 C291.79102343 173.3981705 291.79124486 174.4671784 291.791473 175.56858049 C291.79542079 192.88932318 291.81287395 210.2100238 291.83616152 227.53075024 C291.85987493 245.31166713 291.87233738 263.09256291 291.87350345 280.87349588 C291.87442024 290.85761926 291.88017355 300.84168784 291.89832306 310.82579613 C291.91372391 319.32786335 291.91884461 327.82985882 291.91058496 336.33193734 C291.90667835 340.66922989 291.90760858 345.00637795 291.9216423 349.34365273 C291.93438053 353.31690655 291.93318446 357.28990728 291.92105159 361.26316074 C291.91909445 362.69791832 291.92217386 364.13269382 291.93089595 365.56742623 C291.98193503 374.53315359 291.68879789 382.27077425 286.73806763 389.95294189 C279.88688282 396.8041267 272.29233312 398.34865856 262.89248174 398.39860451 C262.10159818 398.39277883 261.31071461 398.38695315 260.49586487 398.38095093 C259.63062905 398.38265978 258.76539323 398.38436863 257.87393814 398.38612926 C254.99970395 398.38940084 252.12570773 398.37845919 249.25149536 398.36749268 C247.18122869 398.36692806 245.11096163 398.36724611 243.04069519 398.36837769 C237.43806571 398.36895022 231.8355223 398.35721193 226.23291278 398.34322977 C220.37127799 398.3307059 214.5096411 398.3295506 208.647995 398.32717896 C197.55599478 398.32096906 186.46403412 398.30456486 175.3720513 398.28447998 C162.74089134 398.26210572 150.10972946 398.2511237 137.47855461 398.24108911 C111.5025363 398.22019822 85.52655585 398.18462769 59.55056763 398.14044189 C59.55056763 409.03044189 59.55056763 419.92044189 59.55056763 431.14044189 C53.93375403 432.26380461 53.93375403 432.26380461 50.04666138 430.01544189 C49.22359497 429.55653564 48.40052856 429.09762939 47.55252075 428.62481689 C46.70625122 428.13497314 45.85998169 427.64512939 44.98806763 427.14044189 C43.30560725 426.17101818 41.6169964 425.21217016 39.92166138 424.26544189 C38.80682373 423.61962158 38.80682373 423.61962158 37.66946411 422.96075439 C35.08469908 421.9600849 34.10967215 422.15701683 31.55056763 423.14044189 C30.13591044 423.80212548 28.74048767 424.50593772 27.36306763 425.24200439 C26.19130981 425.85302002 26.19130981 425.85302002 24.99588013 426.47637939 C23.36243754 427.33745935 21.73221934 428.20468315 20.10525513 429.07794189 C19.32408325 429.48270752 18.54291138 429.88747314 17.73806763 430.30450439 C17.03037231 430.68042725 16.322677 431.0563501 15.59353638 431.44366455 C13.14503077 432.27875478 11.94431138 432.04069205 9.55056763 431.14044189 C8.55056763 430.14044189 8.55056763 430.14044189 8.43704224 427.0894165 C8.43720128 425.74052919 8.44289151 424.39163575 8.45291138 423.04278564 C8.45432632 422.33392715 8.45574127 421.62506866 8.4571991 420.89472961 C8.4628132 418.62242477 8.475368 416.35021714 8.48806763 414.07794189 C8.49308081 412.54083394 8.49764403 411.00372444 8.5017395 409.46661377 C8.5127872 405.69118548 8.53006121 401.91583019 8.55056763 398.14044189 C7.36881958 398.16122803 6.18707153 398.18201416 4.96951294 398.20343018 C-11.03266149 398.45842137 -25.64157686 397.21270824 -37.94943237 385.82794189 C-38.77443237 384.94106689 -39.59943237 384.05419189 -40.44943237 383.14044189 C-40.93411987 382.67251221 -41.41880737 382.20458252 -41.91818237 381.72247314 C-49.60485324 373.78088717 -52.56672252 362.30724507 -52.58086014 351.48496819 C-52.58662186 349.82179473 -52.58662186 349.82179473 -52.59249997 348.12502182 C-52.59163349 346.91725369 -52.59076701 345.70948557 -52.58987427 344.46511841 C-52.59284539 343.17397255 -52.59581651 341.88282669 -52.59887767 340.5525552 C-52.60692613 336.97497576 -52.60873604 333.39741641 -52.60947514 329.81982899 C-52.61132946 325.95872271 -52.61887872 322.09762677 -52.62561035 318.23652649 C-52.6391791 309.79626403 -52.64521618 301.35600632 -52.64962101 292.91573477 C-52.65238602 287.642737 -52.65662386 282.36974107 -52.66112518 277.09674454 C-52.67331617 262.4892965 -52.68361567 247.88184991 -52.68700027 233.2743969 C-52.68721984 232.3398936 -52.68743941 231.4053903 -52.68766563 230.44256873 C-52.6878839 229.50586433 -52.68810218 228.56915993 -52.68832707 227.60407054 C-52.68877054 225.70603808 -52.6892171 223.80800561 -52.68966675 221.90997314 C-52.68988818 220.968489 -52.69010961 220.02700485 -52.69033775 219.05699088 C-52.69428426 203.80768784 -52.71173458 188.55843263 -52.73502627 173.30914806 C-52.75876186 157.64240634 -52.77120314 141.9756886 -52.77236819 126.30892861 C-52.77328373 117.51689875 -52.77900556 108.72493121 -52.79718781 99.93291855 C-52.81261864 92.44510794 -52.81769171 84.95737891 -52.8094497 77.46955542 C-52.80555368 73.65236333 -52.80642125 69.83533538 -52.82050705 66.01816368 C-52.83566917 61.87121412 -52.8273485 57.7246314 -52.81692505 53.57766724 C-52.82498145 52.38328344 -52.83303786 51.18889965 -52.8413384 49.95832241 C-52.7708841 37.93666603 -50.43526431 28.01696291 -43.44943237 18.14044189 C-43.008573 17.50364502 -42.56771362 16.86684814 -42.11349487 16.21075439 C-31.7473512 2.72877564 -15.89512361 -0.01272794 0 0 Z " fill="#8C3F0A" transform="translate(136.44943237304688,39.85955810546875)"/>
<path d="M0 0 C0 124.41 0 248.82 0 377 C60.080625 376.9071875 60.080625 376.9071875 121.375 376.8125 C134.02247559 376.80581299 146.66995117 376.79912598 159.70068359 376.79223633 C171.03695173 376.76236124 171.03695173 376.76236124 182.37319946 376.72587585 C187.4228202 376.70980108 192.47223967 376.70769163 197.5218811 376.71403503 C203.96596472 376.72167237 210.40957526 376.70542314 216.85357213 376.67198312 C219.21666987 376.66376806 221.5798151 376.66389731 223.94290805 376.67339098 C227.14059486 376.68502904 230.33670658 376.66588068 233.53427124 376.63923645 C234.45426722 376.64990993 235.37426319 376.6605834 236.32213783 376.67158031 C243.02749167 376.56801799 248.45714786 374.85661607 254 371 C258.38908358 365.70443403 260.12189792 360.89640852 260.1386652 354.02422047 C260.14413964 352.76770831 260.14961409 351.51119615 260.15525442 350.21660787 C260.1563307 348.81447469 260.15731538 347.41234143 260.15821838 346.01020813 C260.16278258 344.52681427 260.16778239 343.04342169 260.17318195 341.56003064 C260.18678867 337.4736465 260.19418874 333.38727071 260.20060861 329.30086982 C260.20860144 324.89800846 260.22230305 320.49516452 260.23532104 316.09231567 C260.25709967 308.46070716 260.27523909 300.8290969 260.29092598 293.19747353 C260.31361199 282.16334639 260.34175657 271.12923853 260.37124526 260.09512772 C260.41893674 242.19420498 260.4621967 224.29327436 260.50268555 206.39233398 C260.54203256 189.00040067 260.58345687 171.60847435 260.62768555 154.21655273 C260.63177196 152.60923787 260.63177196 152.60923787 260.63594092 150.969452 C260.64962026 145.59398224 260.66334056 140.21851258 260.67708123 134.84304297 C260.79107045 90.2287099 260.89787439 45.6143617 261 1 C267.65903007 0.84947479 271.01097132 2.64493629 276 7 C280.67684066 12.77142039 282.12295167 17.70147916 282.13142776 25.07368755 C282.13526891 26.32664047 282.13911005 27.57959339 282.1430676 28.87051457 C282.14228736 30.26350452 282.14140857 31.65649442 282.14044189 33.04948425 C282.14302555 34.52732636 282.14603871 36.00516777 282.1494453 37.48300821 C282.15751861 41.54976379 282.15930505 45.61650173 282.16004276 49.68326437 C282.16189275 54.0671884 282.16943984 58.45110325 282.17617798 62.83502197 C282.1897644 72.42392531 282.19578656 82.01282447 282.20018864 91.60173583 C282.20295066 97.5886257 282.20718795 103.57551395 282.21169281 109.56240273 C282.22388611 126.1367937 282.23418515 142.71118337 282.2375679 159.28557873 C282.23778747 160.34654662 282.23800703 161.40751452 282.23823325 162.50063296 C282.23845153 163.56414775 282.23866981 164.62766255 282.2388947 165.72340506 C282.23933817 167.87851028 282.23978473 170.03361549 282.24023438 172.1887207 C282.2404558 173.25772861 282.24067723 174.32673651 282.24090537 175.42813859 C282.24485316 192.74888129 282.26230633 210.0695819 282.2855939 227.39030834 C282.3093073 245.17122524 282.32176976 262.95212102 282.32293582 280.73305398 C282.32385261 290.71717737 282.32960592 300.70124594 282.34775543 310.68535423 C282.36315628 319.18742145 282.36827698 327.68941692 282.36001733 336.19149544 C282.35611072 340.528788 282.35704095 344.86593606 282.37107468 349.20321083 C282.3838129 353.17646465 282.38261683 357.14946538 282.37048396 361.12271885 C282.36852682 362.55747643 282.37160623 363.99225193 282.38032833 365.42698433 C282.4313674 374.3927117 282.13823026 382.13033235 277.1875 389.8125 C270.3363152 396.6636848 262.7417655 398.20821667 253.34191412 398.25816262 C252.55103055 398.25233693 251.76014698 398.24651125 250.94529724 398.24050903 C250.08006142 398.24221788 249.2148256 398.24392673 248.32337052 398.24568737 C245.44913633 398.24895895 242.5751401 398.23801729 239.70092773 398.22705078 C237.63066107 398.22648616 235.560394 398.22680422 233.49012756 398.22793579 C227.88749808 398.22850833 222.28495468 398.21677003 216.68234515 398.20278788 C210.82071036 398.190264 204.95907348 398.18910871 199.09742737 398.18673706 C188.00542716 398.18052717 176.91346649 398.16412297 165.82148367 398.14403808 C153.19032371 398.12166383 140.55916183 398.11068181 127.92798698 398.10064721 C101.95196867 398.07975633 75.97598822 398.0441858 50 398 C50 408.89 50 419.78 50 431 C44.38318641 432.12336272 44.38318641 432.12336272 40.49609375 429.875 C39.67302734 429.41609375 38.84996094 428.9571875 38.00195312 428.484375 C37.15568359 427.99453125 36.30941406 427.5046875 35.4375 427 C33.75503963 426.03057628 32.06642877 425.07172826 30.37109375 424.125 C29.2562561 423.47917969 29.2562561 423.47917969 28.11889648 422.8203125 C25.53413145 421.81964301 24.55910452 422.01657493 22 423 C20.58534281 423.66168359 19.18992004 424.36549582 17.8125 425.1015625 C16.64074219 425.71257812 16.64074219 425.71257812 15.4453125 426.3359375 C13.81186992 427.19701746 12.18165171 428.06424126 10.5546875 428.9375 C9.77351563 429.34226562 8.99234375 429.74703125 8.1875 430.1640625 C7.47980469 430.53998535 6.77210938 430.9159082 6.04296875 431.30322266 C3.59446314 432.13831288 2.39374376 431.90025016 0 431 C-1 430 -1 430 -1.11352539 426.94897461 C-1.11336634 425.60008729 -1.10767612 424.25119386 -1.09765625 422.90234375 C-1.0962413 422.19348526 -1.09482635 421.48462677 -1.09336853 420.75428772 C-1.08775443 418.48198288 -1.07519963 416.20977525 -1.0625 413.9375 C-1.05748681 412.40039204 -1.05292359 410.86328255 -1.04882812 409.32617188 C-1.03778042 405.55074358 -1.02050641 401.77538829 -1 398 C-2.18174805 398.02078613 -3.36349609 398.04157227 -4.58105469 398.06298828 C-20.58322912 398.31797947 -35.19214449 397.07226635 -47.5 385.6875 C-48.325 384.800625 -49.15 383.91375 -50 383 C-50.4846875 382.53207031 -50.969375 382.06414062 -51.46875 381.58203125 C-59.15542087 373.64044528 -62.11729014 362.16680318 -62.13142776 351.34452629 C-62.13718948 349.68135284 -62.13718948 349.68135284 -62.1430676 347.98457992 C-62.14220112 346.7768118 -62.14133463 345.56904367 -62.14044189 344.32467651 C-62.14341302 343.03353066 -62.14638414 341.7423848 -62.1494453 340.41211331 C-62.15749375 336.83453387 -62.15930366 333.25697451 -62.16004276 329.67938709 C-62.16189709 325.81828082 -62.16944635 321.95718487 -62.17617798 318.09608459 C-62.18974672 309.65582213 -62.1957838 301.21556443 -62.20018864 292.77529287 C-62.20295364 287.50229511 -62.20719148 282.22929917 -62.21169281 276.95630264 C-62.2238838 262.3488546 -62.2341833 247.74140802 -62.2375679 233.133955 C-62.23778747 232.19945171 -62.23800703 231.26494841 -62.23823325 230.30212683 C-62.23845153 229.36542243 -62.23866981 228.42871803 -62.2388947 227.46362865 C-62.23933816 225.56559618 -62.23978473 223.66756372 -62.24023438 221.76953125 C-62.2404558 220.8280471 -62.24067723 219.88656295 -62.24090537 218.91654898 C-62.24485189 203.66724594 -62.2623022 188.41799073 -62.2855939 173.16870616 C-62.30932949 157.50196444 -62.32177077 141.8352467 -62.32293582 126.16848671 C-62.32385136 117.37645685 -62.32957318 108.58448931 -62.34775543 99.79247665 C-62.36318627 92.30466605 -62.36825934 84.81693702 -62.36001733 77.32911353 C-62.3561213 73.51192144 -62.35698888 69.69489348 -62.37107468 65.87772179 C-62.3862368 61.73077222 -62.37791613 57.5841895 -62.36749268 53.43722534 C-62.37554908 52.24284155 -62.38360548 51.04845775 -62.39190602 49.81788051 C-62.32145172 37.79622413 -59.98583194 27.87652102 -53 18 C-52.55914062 17.36320312 -52.11828125 16.72640625 -51.6640625 16.0703125 C-38.8237974 -0.62945425 -19.26119986 0 0 0 Z " fill="#7C3108" transform="translate(146,40)"/>
<path d="M0 0 C0 124.41 0 248.82 0 377 C-30 377 -30 377 -43 373 C-46.90452556 366.07834106 -48.12107084 359.27269688 -48.13142776 351.34452629 C-48.13718948 349.68135284 -48.13718948 349.68135284 -48.1430676 347.98457992 C-48.14220112 346.7768118 -48.14133463 345.56904367 -48.14044189 344.32467651 C-48.14341302 343.03353066 -48.14638414 341.7423848 -48.1494453 340.41211331 C-48.15749375 336.83453387 -48.15930366 333.25697451 -48.16004276 329.67938709 C-48.16189709 325.81828082 -48.16944635 321.95718487 -48.17617798 318.09608459 C-48.18974672 309.65582213 -48.1957838 301.21556443 -48.20018864 292.77529287 C-48.20295364 287.50229511 -48.20719148 282.22929917 -48.21169281 276.95630264 C-48.2238838 262.3488546 -48.2341833 247.74140802 -48.2375679 233.133955 C-48.23778747 232.19945171 -48.23800703 231.26494841 -48.23823325 230.30212683 C-48.23845153 229.36542243 -48.23866981 228.42871803 -48.2388947 227.46362865 C-48.23933816 225.56559618 -48.23978473 223.66756372 -48.24023438 221.76953125 C-48.2404558 220.8280471 -48.24067723 219.88656295 -48.24090537 218.91654898 C-48.24485189 203.66724594 -48.2623022 188.41799073 -48.2855939 173.16870616 C-48.30932949 157.50196444 -48.32177077 141.8352467 -48.32293582 126.16848671 C-48.32385136 117.37645685 -48.32957318 108.58448931 -48.34775543 99.79247665 C-48.36318627 92.30466605 -48.36825934 84.81693702 -48.36001733 77.32911353 C-48.3561213 73.51192144 -48.35698888 69.69489348 -48.37107468 65.87772179 C-48.3862368 61.73077222 -48.37791613 57.5841895 -48.36749268 53.43722534 C-48.37554908 52.24284155 -48.38360548 51.04845775 -48.39190602 49.81788051 C-48.32145172 37.79622413 -45.98583194 27.87652102 -39 18 C-38.55914062 17.36320312 -38.11828125 16.72640625 -37.6640625 16.0703125 C-30.83919485 7.19403955 -20.53366799 2.65740696 -9.875 0.3125 C-6.60096966 -0.04337286 -3.29331446 0 0 0 Z " fill="#8C3F0A" transform="translate(132,40)"/>
<path d="M0 0 C5.7697171 2.60118971 9.22107238 6.45146549 11.73046875 12.26171875 C11.97097778 14.33721924 11.97097778 14.33721924 11.95751953 16.57128906 C11.95736847 17.41185852 11.95721741 18.25242798 11.95706177 19.11846924 C11.9467392 20.01652283 11.93641663 20.91457642 11.92578125 21.83984375 C11.92295135 22.76641785 11.92012146 23.69299194 11.91720581 24.64764404 C11.90602486 27.60246784 11.88092402 30.5569868 11.85546875 33.51171875 C11.84543626 35.5169227 11.83631088 37.52213141 11.828125 39.52734375 C11.80609233 44.43891926 11.7715767 49.35026734 11.73046875 54.26171875 C12.74359131 54.24077148 13.75671387 54.21982422 14.80053711 54.19824219 C18.5967773 54.12527205 22.39295686 54.0797144 26.18969727 54.04199219 C27.82587139 54.02200543 29.46197526 53.99480632 31.09790039 53.95996094 C50.7408937 53.55235534 50.7408937 53.55235534 57.88671875 60.296875 C58.33015625 60.96589844 58.77359375 61.63492188 59.23046875 62.32421875 C59.69453125 62.99582031 60.15859375 63.66742188 60.63671875 64.359375 C63.21066295 68.83619938 63.20386815 73.24368508 62.73046875 78.26171875 C60.34676564 84.78553778 55.86061335 89.11805485 49.73046875 92.26171875 C45.93217311 93.55749724 42.08473058 93.38855036 38.12109375 93.359375 C37.39428406 93.35796005 36.66747437 93.3565451 35.91864014 93.35508728 C33.60587381 93.34950667 31.29320563 93.33695779 28.98046875 93.32421875 C27.40885557 93.31920124 25.83724086 93.31463877 24.265625 93.31054688 C20.42053532 93.2995436 16.57551865 93.28229236 12.73046875 93.26171875 C12.7404615 95.09549072 12.7404615 95.09549072 12.75065613 96.96630859 C12.8115364 108.5012461 12.85647467 120.0361509 12.88590527 131.57121277 C12.90154459 137.50115671 12.92275146 143.43097069 12.95678711 149.36083984 C12.98944199 155.08613356 13.00733481 160.81130245 13.01510048 166.53668213 C13.02063295 168.71830204 13.03143652 170.89991532 13.04765892 173.08148193 C13.06951435 176.14301181 13.07243224 179.20402936 13.07104492 182.265625 C13.08183075 183.16258591 13.09261658 184.05954681 13.10372925 184.98368835 C13.0696385 191.96055326 11.74854189 197.8616628 7.48046875 203.57421875 C3.07898934 207.87566454 -1.14131722 209.40819554 -7.20703125 209.76171875 C-13.93455477 209.54668375 -18.18363495 206.45458409 -22.70703125 201.69921875 C-25.00169613 198.11954153 -25.39490846 195.07102919 -25.38978577 190.87042236 C-25.39116043 189.99826584 -25.3925351 189.12610931 -25.39395142 188.2275238 C-25.3885585 186.80440636 -25.3885585 186.80440636 -25.38305664 185.35253906 C-25.38320267 184.34733719 -25.38334869 183.34213531 -25.38349915 182.30647278 C-25.38280253 178.98424114 -25.37502183 175.66206559 -25.3671875 172.33984375 C-25.36532243 170.03627554 -25.36389895 167.73270693 -25.36289978 165.42913818 C-25.35908162 159.36613876 -25.34925729 153.3031633 -25.3381958 147.24017334 C-25.32796663 141.05334802 -25.32339893 134.86651884 -25.31835938 128.6796875 C-25.30763442 116.54035406 -25.29056638 104.4010384 -25.26953125 92.26171875 C-26.94909912 92.29313965 -26.94909912 92.29313965 -28.66259766 92.32519531 C-32.83336502 92.39782301 -37.00407693 92.44360086 -41.17529297 92.48144531 C-42.97747206 92.50150908 -44.77958646 92.52876688 -46.58154297 92.56347656 C-49.17822261 92.61222704 -51.77403854 92.63473957 -54.37109375 92.65234375 C-55.5714476 92.68331146 -55.5714476 92.68331146 -56.79605103 92.71490479 C-62.11074306 92.71701661 -65.03594226 91.75006331 -69.26953125 88.26171875 C-73.90744118 83.41299473 -75.90675141 79.5267373 -76.64453125 72.88671875 C-76.06130168 67.24883288 -74.53459655 63.12044018 -70.0703125 59.45703125 C-64.19044957 55.49924912 -60.50928321 54.11560195 -53.41796875 54.1640625 C-52.64393707 54.16547745 -51.8699054 54.1668924 -51.07241821 54.16835022 C-48.59641683 54.17395472 -46.12050537 54.18650792 -43.64453125 54.19921875 C-41.96744922 54.20423317 -40.29036578 54.20879618 -38.61328125 54.21289062 C-34.49866319 54.2239256 -30.38411247 54.24119321 -26.26953125 54.26171875 C-26.29571533 53.13266113 -26.32189941 52.00360352 -26.34887695 50.84033203 C-26.4400855 46.60990594 -26.49703441 42.37956485 -26.54418945 38.1484375 C-26.56917404 36.32504613 -26.60317404 34.50175327 -26.64672852 32.67871094 C-27.11751337 12.45157827 -27.11751337 12.45157827 -21.26953125 5.26171875 C-14.89634292 -0.67953842 -8.45618557 -2.75080735 0 0 Z " fill="#FEA819" transform="translate(289.26953125,115.73828125)"/>
<path d="M0 0 C4.11935824 1.50582997 5.8856778 2.62941588 8.25 6.375 C8.75015625 7.14585938 9.2503125 7.91671875 9.765625 8.7109375 C11.98306737 12.82303 12.12609563 16.43598441 12.13142776 21.07368755 C12.13526891 22.32664047 12.13911005 23.57959339 12.1430676 24.87051457 C12.14228736 26.26350452 12.14140857 27.65649442 12.14044189 29.04948425 C12.14302555 30.52732636 12.14603871 32.00516777 12.1494453 33.48300821 C12.15751861 37.54976379 12.15930505 41.61650173 12.16004276 45.68326437 C12.16189275 50.0671884 12.16943984 54.45110325 12.17617798 58.83502197 C12.1897644 68.42392531 12.19578656 78.01282447 12.20018864 87.60173583 C12.20295066 93.5886257 12.20718795 99.57551395 12.21169281 105.56240273 C12.22388611 122.1367937 12.23418515 138.71118337 12.2375679 155.28557873 C12.23778747 156.34654662 12.23800703 157.40751452 12.23823325 158.50063296 C12.23845153 159.56414775 12.23866981 160.62766255 12.2388947 161.72340506 C12.23933817 163.87851028 12.23978473 166.03361549 12.24023438 168.1887207 C12.2404558 169.25772861 12.24067723 170.32673651 12.24090537 171.42813859 C12.24485316 188.74888129 12.26230633 206.0695819 12.2855939 223.39030834 C12.3093073 241.17122524 12.32176976 258.95212102 12.32293582 276.73305398 C12.32385261 286.71717737 12.32960592 296.70124594 12.34775543 306.68535423 C12.36315628 315.18742145 12.36827698 323.68941692 12.36001733 332.19149544 C12.35611072 336.528788 12.35704095 340.86593606 12.37107468 345.20321083 C12.3838129 349.17646465 12.38261683 353.14946538 12.37048396 357.12271885 C12.36852682 358.55747643 12.37160623 359.99225193 12.38032833 361.42698433 C12.4313674 370.3927117 12.13823026 378.13033235 7.1875 385.8125 C0.4152951 392.5847049 -7.12032971 394.20327791 -16.42498106 394.26282471 C-17.56014743 394.25510937 -17.56014743 394.25510937 -18.71824646 394.24723816 C-19.54820399 394.24965257 -20.37816152 394.25206699 -21.23326927 394.25455457 C-23.99080015 394.26015079 -26.74809508 394.25155807 -29.50561523 394.24291992 C-31.4947567 394.24399416 -33.48389785 394.24593494 -35.47303772 394.24867249 C-40.87241496 394.25351425 -46.2717093 394.24586298 -51.67107654 394.23571944 C-57.37585514 394.22687697 -63.08063159 394.22869792 -68.78541565 394.2290802 C-78.40830853 394.22814307 -88.03116994 394.21947061 -97.65405273 394.20581055 C-108.64079802 394.19026779 -119.62750845 394.18480616 -130.61426395 394.1855461 C-142.44185373 394.18623412 -154.26943075 394.17920443 -166.09701657 394.1700995 C-169.43049182 394.16800987 -172.76396488 394.16726404 -176.09744072 394.16686058 C-207.40919934 394.15962583 -238.69689204 393.73648392 -270 393 C-270 389.7 -270 386.4 -270 383 C-268.70348007 382.99761165 -267.40696014 382.99522329 -266.07115173 382.99276257 C-235.28618283 382.93538803 -204.5012928 382.86264706 -173.71640825 382.77101372 C-169.9263363 382.75974572 -166.13626398 382.74860724 -162.34619141 382.73754883 C-161.59166435 382.73534514 -160.8371373 382.73314146 -160.05974579 382.730871 C-147.84665928 382.69551007 -135.63357284 382.67063914 -123.42045414 382.64965298 C-110.88627703 382.62788133 -98.35216627 382.59481795 -85.81804562 382.55129844 C-78.0854123 382.5248052 -70.35286165 382.5070927 -62.6201852 382.50065396 C-56.68820546 382.49477053 -50.75634792 382.47316769 -44.82442665 382.44572449 C-42.39283872 382.43693018 -39.96122623 382.43322455 -37.52962303 382.43499184 C-34.20849603 382.43664351 -30.88794283 382.41995336 -27.56689453 382.39872742 C-26.60578734 382.40357499 -25.64468016 382.40842257 -24.65444851 382.41341704 C-17.60277954 382.33909431 -11.92599186 381.32749352 -6.25 376.8125 C0.40118953 368.49851309 0.56958415 361.48659525 0.48101807 351.14318848 C0.48276379 349.62660418 0.48626873 348.11002106 0.49137473 346.59344435 C0.5002984 342.43838752 0.48434721 338.28374487 0.46426249 334.12874079 C0.44696414 329.64349566 0.45283587 325.15827326 0.45587158 320.67300415 C0.45796744 312.90609722 0.44543363 305.13932486 0.42292023 297.37245178 C0.39039103 286.14292522 0.37999226 274.91346362 0.37496826 263.68389505 C0.36621706 245.46403118 0.3396062 227.24423901 0.30175781 209.02441406 C0.26503322 191.32715208 0.23672364 173.62990959 0.21972656 155.93261719 C0.21815022 154.2959093 0.21815022 154.2959093 0.21654204 152.6261366 C0.21132183 147.15213172 0.20626701 141.6781267 0.20129442 136.20412159 C0.15983783 90.80269807 0.08939413 45.40135274 0 0 Z " fill="#6E2E03" transform="translate(416,44)"/>
<path d="M0 0 C5.54908744 3.27900621 8.89838663 6.69515989 11 13 C11.56724124 18.7269548 11.24381086 23.07835594 8 28 C4.04132991 32.47954774 -0.03260993 35.90071093 -6 37 C-8.54635479 37.08298675 -11.06393883 37.11639258 -13.609375 37.09765625 C-14.33618469 37.0962413 -15.06299438 37.09482635 -15.81182861 37.09336853 C-18.12459494 37.08778792 -20.43726312 37.07523904 -22.75 37.0625 C-24.32161318 37.05748249 -25.89322789 37.05292002 -27.46484375 37.04882812 C-31.30993343 37.03782485 -35.1549501 37.02057361 -39 37 C-38.99333817 38.22251465 -38.98667633 39.4450293 -38.97981262 40.70458984 C-38.91893235 52.23952735 -38.87399408 63.77443215 -38.84456348 75.30949402 C-38.82892416 81.23943796 -38.80771729 87.16925194 -38.77368164 93.09912109 C-38.74102676 98.82441481 -38.72313394 104.5495837 -38.71536827 110.27496338 C-38.7098358 112.45658329 -38.69903223 114.63819657 -38.68280983 116.81976318 C-38.6609544 119.88129306 -38.65803651 122.94231061 -38.65942383 126.00390625 C-38.648638 126.90086716 -38.63785217 127.79782806 -38.6267395 128.7219696 C-38.66083025 135.69883451 -39.98192686 141.59994405 -44.25 147.3125 C-48.65147941 151.61394579 -52.87178597 153.14647679 -58.9375 153.5 C-64.31276025 153.32000651 -68.00756145 151.56007769 -72 148 C-73.61088256 146.05692979 -74.76220986 144.21770734 -76 142 C-75.2265625 142.04640625 -74.453125 142.0928125 -73.65625 142.140625 C-66.98514355 142.37180196 -61.31509022 142.42924185 -56 138 C-51.92424924 133.02758407 -49.88986859 128.24741564 -49.85523987 121.8119812 C-49.84834137 120.98478577 -49.84144287 120.15759033 -49.83433533 119.30532837 C-49.83172195 118.40647919 -49.82910858 117.50763 -49.82641602 116.58154297 C-49.819729 115.62832153 -49.81304199 114.6751001 -49.80615234 113.69299316 C-49.79211307 111.62501167 -49.78021545 109.55701478 -49.77020454 107.48900986 C-49.75379489 104.22000235 -49.73055961 100.95110985 -49.70530701 97.68215942 C-49.63451067 88.3885876 -49.57426471 79.09497036 -49.52319336 69.80126953 C-49.49147735 64.11671087 -49.45022798 58.43228698 -49.40299797 52.74783707 C-49.3869416 50.57804908 -49.37463694 48.40823007 -49.36609077 46.23839951 C-49.35399388 43.21201551 -49.32987054 40.18595132 -49.30297852 37.15966797 C-49.30238937 36.25677032 -49.30180023 35.35387268 -49.30119324 34.4236145 C-49.22790312 28.22790312 -49.22790312 28.22790312 -47 26 C-44.50423181 25.80310932 -42.11016655 25.72306331 -39.61328125 25.7265625 C-38.10220634 25.70625795 -36.5911387 25.68540689 -35.08007812 25.6640625 C-32.70151666 25.64154705 -30.32324288 25.62502658 -27.94458008 25.61914062 C-25.64611872 25.60955272 -23.3489496 25.57568607 -21.05078125 25.5390625 C-20.34947586 25.54410797 -19.64817047 25.54915344 -18.9256134 25.55435181 C-13.4518598 25.44659254 -10.4275714 23.98612456 -6 21 C-1.41747752 16.1697736 0.28473738 11.81660125 0.125 5.1875 C0.10695313 4.21167969 0.08890625 3.23585937 0.0703125 2.23046875 C0.04710937 1.49441406 0.02390625 0.75835937 0 0 Z " fill="#F49018" transform="translate(341,172)"/>
<path d="M0 0 C0 2.64 0 5.28 0 8 C-1.16015625 8.14695312 -1.16015625 8.14695312 -2.34375 8.296875 C-12.3865058 9.73865677 -18.6137381 11.92070236 -25.45703125 19.51171875 C-29.53604104 26.08976745 -30.44173177 32.89603159 -30.38526917 40.49681091 C-30.39050486 41.40963823 -30.39574056 42.32246554 -30.40113491 43.26295429 C-30.41501928 46.29840584 -30.40781478 49.33342739 -30.40063477 52.36889648 C-30.40638101 54.55414709 -30.41346531 56.73939452 -30.42178345 58.92463684 C-30.43686464 63.61776611 -30.4426736 68.31078184 -30.44125557 73.00393486 C-30.43921982 80.41935922 -30.45880013 87.83463093 -30.48143005 95.25001526 C-30.52046059 108.97209276 -30.53956268 122.69415853 -30.555273 136.41627901 C-30.57734823 155.42839526 -30.6115053 174.44048417 -30.66480106 193.45253998 C-30.68476913 200.8305845 -30.69430566 208.20854876 -30.69575322 215.58661926 C-30.69849409 220.1635355 -30.7093024 224.74040701 -30.72226334 229.31730461 C-30.72655994 231.44665617 -30.72739171 233.57601781 -30.72458839 235.70537186 C-30.72121208 238.60104388 -30.72991334 241.49643071 -30.74171448 244.39207458 C-30.73773338 245.24390035 -30.73375229 246.09572611 -30.72965056 246.97336477 C-30.77184159 252.77184159 -30.77184159 252.77184159 -33 255 C-37.55555556 254.44444444 -37.55555556 254.44444444 -39 253 C-39.10459818 250.15257909 -39.14331833 247.32919264 -39.14044189 244.48109436 C-39.14341302 243.57666342 -39.14638414 242.67223247 -39.1494453 241.74039453 C-39.15817304 238.68507482 -39.159644 235.62979411 -39.16113281 232.57446289 C-39.16575832 230.39352331 -39.17078261 228.21258454 -39.17617798 226.03164673 C-39.18933471 220.08700952 -39.19575395 214.14238362 -39.20018864 208.19773412 C-39.20311569 204.48446134 -39.20721992 200.77119167 -39.21169281 197.05792046 C-39.22616754 184.77421614 -39.23548816 172.49052035 -39.23955932 160.20680828 C-39.23978209 159.5439009 -39.24000486 158.88099352 -39.24023438 158.19799805 C-39.2404558 157.53427956 -39.24067723 156.87056107 -39.24090537 156.1867299 C-39.24460243 146.11623919 -39.25939943 136.04580857 -39.28125 125.9753418 C-39.30653818 114.28174279 -39.32142786 102.58819099 -39.32293582 90.89456362 C-39.32398353 84.70481123 -39.32988361 78.51515473 -39.34775543 72.3254261 C-39.36425484 66.49700162 -39.36638242 60.66874486 -39.35761642 54.84030533 C-39.3568469 52.70463677 -39.3611775 50.56895913 -39.37107468 48.43331337 C-39.38382681 45.50926359 -39.37789936 42.58580479 -39.36749268 39.66175842 C-39.37554908 38.82388749 -39.38360548 37.98601655 -39.39190602 37.12275559 C-39.29891067 25.88838286 -35.63308569 17.89207814 -27.9609375 9.8671875 C-19.51187047 1.7763848 -11.600843 -0.79397405 0 0 Z " fill="#985121" transform="translate(132,49)"/>
<path d="M0 0 C16.83 0 33.66 0 51 0 C51 11.22 51 22.44 51 34 C45.38318641 35.12336272 45.38318641 35.12336272 41.49609375 32.875 C40.67302734 32.41609375 39.84996094 31.9571875 39.00195312 31.484375 C38.15568359 30.99453125 37.30941406 30.5046875 36.4375 30 C34.75503963 29.03057628 33.06642877 28.07172826 31.37109375 27.125 C30.62786865 26.69445312 29.88464355 26.26390625 29.11889648 25.8203125 C26.53413145 24.81964301 25.55910452 25.01657493 23 26 C21.58534281 26.66168359 20.18992004 27.36549582 18.8125 28.1015625 C18.03132813 28.50890625 17.25015625 28.91625 16.4453125 29.3359375 C14.81186992 30.19701746 13.18165171 31.06424126 11.5546875 31.9375 C10.77351562 32.34226562 9.99234375 32.74703125 9.1875 33.1640625 C8.12595703 33.72794678 8.12595703 33.72794678 7.04296875 34.30322266 C4.59446314 35.13831288 3.39374376 34.90025016 1 34 C0 33 0 33 -0.11352539 29.85717773 C-0.11327441 28.46597304 -0.10771709 27.07476209 -0.09765625 25.68359375 C-0.09664917 25.03588013 -0.09564209 24.3881665 -0.09460449 23.7208252 C-0.08935843 21.29303221 -0.07539725 18.86526439 -0.0625 16.4375 C-0.041875 11.013125 -0.02125 5.58875 0 0 Z " fill="#E63850" transform="translate(145,437)"/>
<path d="M0 0 C5.10863896 -0.0246501 10.21724359 -0.04283607 15.32592773 -0.05493164 C17.06519168 -0.05997204 18.80445136 -0.0668043 20.54370117 -0.07543945 C23.03825937 -0.08751792 25.53276173 -0.09323108 28.02734375 -0.09765625 C28.80963852 -0.10281754 29.59193329 -0.10797882 30.39793396 -0.11329651 C32.26567114 -0.11349226 34.13329204 -0.06199694 36 0 C37 1 37 1 37.1875 3.4375 C37 6 37 6 35 8 C32.34708243 8.17510386 29.80013826 8.23155483 27.1484375 8.1953125 C26.37440582 8.1924826 25.60037415 8.18965271 24.80288696 8.18673706 C22.32676843 8.17552754 19.8510095 8.15042203 17.375 8.125 C15.69792188 8.11497118 14.02083811 8.10584516 12.34375 8.09765625 C8.22902777 8.07558574 4.11457489 8.04105102 0 8 C0 5.36 0 2.72 0 0 Z " fill="#985121" transform="translate(146,49)"/>
<path d="M0 0 C0.56847656 0.19335938 1.13695313 0.38671875 1.72265625 0.5859375 C2.49480469 0.84632813 3.26695313 1.10671875 4.0625 1.375 C4.81660156 1.63023437 5.57070312 1.88546875 6.34765625 2.1484375 C7.22292969 2.42945313 8.09820312 2.71046875 9 3 C10.56234375 3.5259375 10.56234375 3.5259375 12.15625 4.0625 C16.94307132 5.2300174 21.52853633 5.45535979 26.4375 5.625 C27.82098633 5.68300781 27.82098633 5.68300781 29.23242188 5.7421875 C31.48798068 5.83568217 33.74396176 5.91889361 36 6 C36 9.3 36 12.6 36 16 C26.05905209 18.48523698 16.20614565 14.10366375 7.75 9.0625 C4.87339738 6.90504804 2.39771638 4.67980066 0 2 C0 1.34 0 0.68 0 0 Z " fill="#6F2D03" transform="translate(96,421)"/>
<path d="M0 0 C2.625 0.375 2.625 0.375 5 1 C5.625 3.375 5.625 3.375 6 6 C5.34 6.66 4.68 7.32 4 8 C1.375 7.625 1.375 7.625 -1 7 C-1.625 4.625 -1.625 4.625 -2 2 C-1.34 1.34 -0.68 0.68 0 0 Z " fill="#975020" transform="translate(95,312)"/>
</svg>
